<svg id="visual" viewBox="0 0 4000 2000" width="4000" height="2000" xmlns="http://www.w3.org/2000/svg" xmlns:xlink="http://www.w3.org/1999/xlink" version="1.1"><rect x="0" y="0" width="4000" height="2000" fill="#161616"></rect><path d="M0 1509L41.7 1491.3C83.3 1473.7 166.7 1438.3 250 1394.2C333.3 1350 416.7 1297 500 1326.2C583.3 1355.3 666.7 1466.7 750 1499.8C833.3 1533 916.7 1488 1000 1465.7C1083.3 1443.3 1166.7 1443.7 1250 1438.5C1333.3 1433.3 1416.7 1422.7 1500 1415.7C1583.3 1408.7 1666.7 1405.3 1750 1389.5C1833.3 1373.7 1916.7 1345.3 2000 1338.3C2083.3 1331.3 2166.7 1345.7 2250 1349.5C2333.3 1353.3 2416.7 1346.7 2500 1374C2583.3 1401.3 2666.7 1462.7 2750 1451C2833.3 1439.3 2916.7 1354.7 3000 1310.8C3083.3 1267 3166.7 1264 3250 1302.3C3333.3 1340.7 3416.7 1420.3 3500 1421.2C3583.3 1422 3666.7 1344 3750 1299C3833.3 1254 3916.7 1242 3958.3 1236L4000 1230L4000 2001L3958.3 2001C3916.7 2001 3833.3 2001 3750 2001C3666.7 2001 3583.3 2001 3500 2001C3416.7 2001 3333.3 2001 3250 2001C3166.7 2001 3083.3 2001 3000 2001C2916.7 2001 2833.3 2001 2750 2001C2666.7 2001 2583.3 2001 2500 2001C2416.7 2001 2333.3 2001 2250 2001C2166.7 2001 2083.3 2001 2000 2001C1916.7 2001 1833.3 2001 1750 2001C1666.7 2001 1583.3 2001 1500 2001C1416.7 2001 1333.3 2001 1250 2001C1166.7 2001 1083.3 2001 1000 2001C916.7 2001 833.3 2001 750 2001C666.7 2001 583.3 2001 500 2001C416.7 2001 333.3 2001 250 2001C166.7 2001 83.3 2001 41.7 2001L0 2001Z" fill="#161616"></path><path d="M0 1386L41.7 1414C83.3 1442 166.7 1498 250 1492.8C333.3 1487.7 416.7 1421.3 500 1423.7C583.3 1426 666.7 1497 750 1513.7C833.3 1530.3 916.7 1492.7 1000 1487.7C1083.3 1482.7 1166.7 1510.3 1250 1527.7C1333.3 1545 1416.7 1552 1500 1546.3C1583.3 1540.7 1666.7 1522.3 1750 1485.3C1833.3 1448.3 1916.7 1392.7 2000 1370.2C2083.3 1347.7 2166.7 1358.3 2250 1379.2C2333.3 1400 2416.7 1431 2500 1430C2583.3 1429 2666.7 1396 2750 1381.3C2833.3 1366.7 2916.7 1370.3 3000 1401.5C3083.3 1432.7 3166.7 1491.3 3250 1476.5C3333.3 1461.7 3416.7 1373.3 3500 1378C3583.3 1382.7 3666.7 1480.3 3750 1525.5C3833.3 1570.7 3916.7 1563.3 3958.3 1559.7L4000 1556L4000 2001L3958.3 2001C3916.7 2001 3833.3 2001 3750 2001C3666.7 2001 3583.3 2001 3500 2001C3416.7 2001 3333.3 2001 3250 2001C3166.7 2001 3083.3 2001 3000 2001C2916.7 2001 2833.3 2001 2750 2001C2666.7 2001 2583.3 2001 2500 2001C2416.7 2001 2333.3 2001 2250 2001C2166.7 2001 2083.3 2001 2000 2001C1916.7 2001 1833.3 2001 1750 2001C1666.7 2001 1583.3 2001 1500 2001C1416.7 2001 1333.3 2001 1250 2001C1166.7 2001 1083.3 2001 1000 2001C916.7 2001 833.3 2001 750 2001C666.7 2001 583.3 2001 500 2001C416.7 2001 333.3 2001 250 2001C166.7 2001 83.3 2001 41.7 2001L0 2001Z" fill="#262626"></path><path d="M0 1371L41.7 1392C83.3 1413 166.7 1455 250 1487C333.3 1519 416.7 1541 500 1556.3C583.3 1571.7 666.7 1580.3 750 1592.7C833.3 1605 916.7 1621 1000 1629.8C1083.3 1638.7 1166.7 1640.3 1250 1624.7C1333.3 1609 1416.7 1576 1500 1568.3C1583.3 1560.7 1666.7 1578.3 1750 1576.7C1833.3 1575 1916.7 1554 2000 1534.3C2083.3 1514.7 2166.7 1496.3 2250 1467.3C2333.3 1438.3 2416.7 1398.7 2500 1396C2583.3 1393.3 2666.7 1427.7 2750 1432.2C2833.3 1436.7 2916.7 1411.3 3000 1392.2C3083.3 1373 3166.7 1360 3250 1371.2C3333.3 1382.3 3416.7 1417.7 3500 1434.5C3583.3 1451.3 3666.7 1449.7 3750 1438.7C3833.3 1427.7 3916.7 1407.3 3958.3 1397.2L4000 1387L4000 2001L3958.3 2001C3916.7 2001 3833.3 2001 3750 2001C3666.7 2001 3583.3 2001 3500 2001C3416.7 2001 3333.3 2001 3250 2001C3166.7 2001 3083.3 2001 3000 2001C2916.7 2001 2833.3 2001 2750 2001C2666.7 2001 2583.3 2001 2500 2001C2416.7 2001 2333.3 2001 2250 2001C2166.7 2001 2083.3 2001 2000 2001C1916.7 2001 1833.3 2001 1750 2001C1666.7 2001 1583.3 2001 1500 2001C1416.7 2001 1333.3 2001 1250 2001C1166.7 2001 1083.3 2001 1000 2001C916.7 2001 833.3 2001 750 2001C666.7 2001 583.3 2001 500 2001C416.7 2001 333.3 2001 250 2001C166.7 2001 83.3 2001 41.7 2001L0 2001Z" fill="#383838"></path><path d="M0 1656L41.7 1651.5C83.3 1647 166.7 1638 250 1613.7C333.3 1589.3 416.7 1549.7 500 1533.3C583.3 1517 666.7 1524 750 1546.8C833.3 1569.7 916.7 1608.3 1000 1593.8C1083.3 1579.3 1166.7 1511.7 1250 1497.5C1333.3 1483.3 1416.7 1522.7 1500 1528.8C1583.3 1535 1666.7 1508 1750 1514.5C1833.3 1521 1916.7 1561 2000 1559.2C2083.3 1557.3 2166.7 1513.7 2250 1519.2C2333.3 1524.7 2416.7 1579.3 2500 1588.8C2583.3 1598.3 2666.7 1562.7 2750 1525.3C2833.3 1488 2916.7 1449 3000 1437.5C3083.3 1426 3166.7 1442 3250 1456C3333.3 1470 3416.7 1482 3500 1490.7C3583.3 1499.3 3666.7 1504.7 3750 1498C3833.3 1491.3 3916.7 1472.7 3958.3 1463.3L4000 1454L4000 2001L3958.3 2001C3916.7 2001 3833.3 2001 3750 2001C3666.7 2001 3583.3 2001 3500 2001C3416.7 2001 3333.3 2001 3250 2001C3166.7 2001 3083.3 2001 3000 2001C2916.7 2001 2833.3 2001 2750 2001C2666.7 2001 2583.3 2001 2500 2001C2416.7 2001 2333.3 2001 2250 2001C2166.7 2001 2083.3 2001 2000 2001C1916.7 2001 1833.3 2001 1750 2001C1666.7 2001 1583.3 2001 1500 2001C1416.7 2001 1333.3 2001 1250 2001C1166.7 2001 1083.3 2001 1000 2001C916.7 2001 833.3 2001 750 2001C666.7 2001 583.3 2001 500 2001C416.7 2001 333.3 2001 250 2001C166.7 2001 83.3 2001 41.7 2001L0 2001Z" fill="#4a4a4a"></path><path d="M0 1694L41.7 1678.7C83.3 1663.3 166.7 1632.7 250 1624.7C333.3 1616.7 416.7 1631.3 500 1626.5C583.3 1621.7 666.7 1597.3 750 1578.8C833.3 1560.3 916.7 1547.7 1000 1536C1083.3 1524.3 1166.7 1513.7 1250 1537.3C1333.3 1561 1416.7 1619 1500 1618.2C1583.3 1617.3 1666.7 1557.7 1750 1549.5C1833.3 1541.3 1916.7 1584.7 2000 1587.2C2083.3 1589.7 2166.7 1551.3 2250 1532.7C2333.3 1514 2416.7 1515 2500 1523.2C2583.3 1531.3 2666.7 1546.7 2750 1551C2833.3 1555.3 2916.7 1548.7 3000 1549C3083.3 1549.3 3166.7 1556.7 3250 1576.8C3333.3 1597 3416.7 1630 3500 1647.3C3583.3 1664.7 3666.7 1666.3 3750 1660.8C3833.3 1655.3 3916.7 1642.7 3958.3 1636.3L4000 1630L4000 2001L3958.3 2001C3916.7 2001 3833.3 2001 3750 2001C3666.7 2001 3583.3 2001 3500 2001C3416.7 2001 3333.3 2001 3250 2001C3166.7 2001 3083.3 2001 3000 2001C2916.7 2001 2833.3 2001 2750 2001C2666.7 2001 2583.3 2001 2500 2001C2416.7 2001 2333.3 2001 2250 2001C2166.7 2001 2083.3 2001 2000 2001C1916.7 2001 1833.3 2001 1750 2001C1666.7 2001 1583.3 2001 1500 2001C1416.7 2001 1333.3 2001 1250 2001C1166.7 2001 1083.3 2001 1000 2001C916.7 2001 833.3 2001 750 2001C666.7 2001 583.3 2001 500 2001C416.7 2001 333.3 2001 250 2001C166.7 2001 83.3 2001 41.7 2001L0 2001Z" fill="#5d5d5d"></path><path d="M0 1650L41.7 1643.8C83.3 1637.7 166.7 1625.3 250 1629.5C333.3 1633.7 416.7 1654.3 500 1657.7C583.3 1661 666.7 1647 750 1636C833.3 1625 916.7 1617 1000 1632C1083.3 1647 1166.7 1685 1250 1676.3C1333.3 1667.7 1416.7 1612.3 1500 1613.5C1583.3 1614.7 1666.7 1672.3 1750 1673C1833.3 1673.7 1916.7 1617.3 2000 1604.8C2083.3 1592.3 2166.7 1623.7 2250 1629.2C2333.3 1634.7 2416.7 1614.3 2500 1596.8C2583.3 1579.3 2666.7 1564.7 2750 1588.2C2833.3 1611.7 2916.7 1673.3 3000 1682.8C3083.3 1692.3 3166.7 1649.7 3250 1636.8C3333.3 1624 3416.7 1641 3500 1649.3C3583.3 1657.7 3666.7 1657.3 3750 1666.5C3833.3 1675.7 3916.7 1694.3 3958.3 1703.7L4000 1713L4000 2001L3958.3 2001C3916.7 2001 3833.3 2001 3750 2001C3666.7 2001 3583.3 2001 3500 2001C3416.7 2001 3333.3 2001 3250 2001C3166.7 2001 3083.3 2001 3000 2001C2916.7 2001 2833.3 2001 2750 2001C2666.7 2001 2583.3 2001 2500 2001C2416.7 2001 2333.3 2001 2250 2001C2166.7 2001 2083.3 2001 2000 2001C1916.7 2001 1833.3 2001 1750 2001C1666.7 2001 1583.3 2001 1500 2001C1416.7 2001 1333.3 2001 1250 2001C1166.7 2001 1083.3 2001 1000 2001C916.7 2001 833.3 2001 750 2001C666.7 2001 583.3 2001 500 2001C416.7 2001 333.3 2001 250 2001C166.7 2001 83.3 2001 41.7 2001L0 2001Z" fill="#717171"></path><path d="M0 1755L41.7 1753.8C83.3 1752.7 166.7 1750.3 250 1729.3C333.3 1708.3 416.7 1668.7 500 1648.2C583.3 1627.7 666.7 1626.3 750 1627.2C833.3 1628 916.7 1631 1000 1632.5C1083.3 1634 1166.7 1634 1250 1641.3C1333.3 1648.7 1416.7 1663.3 1500 1666.3C1583.3 1669.3 1666.7 1660.7 1750 1645C1833.3 1629.3 1916.7 1606.7 2000 1624.8C2083.3 1643 2166.7 1702 2250 1710C2333.3 1718 2416.7 1675 2500 1654C2583.3 1633 2666.7 1634 2750 1648.5C2833.3 1663 2916.7 1691 3000 1702.2C3083.3 1713.3 3166.7 1707.7 3250 1708.3C3333.3 1709 3416.7 1716 3500 1726C3583.3 1736 3666.7 1749 3750 1736.7C3833.3 1724.3 3916.7 1686.7 3958.3 1667.8L4000 1649L4000 2001L3958.3 2001C3916.7 2001 3833.3 2001 3750 2001C3666.7 2001 3583.3 2001 3500 2001C3416.7 2001 3333.3 2001 3250 2001C3166.7 2001 3083.3 2001 3000 2001C2916.7 2001 2833.3 2001 2750 2001C2666.7 2001 2583.3 2001 2500 2001C2416.7 2001 2333.3 2001 2250 2001C2166.7 2001 2083.3 2001 2000 2001C1916.7 2001 1833.3 2001 1750 2001C1666.7 2001 1583.3 2001 1500 2001C1416.7 2001 1333.3 2001 1250 2001C1166.7 2001 1083.3 2001 1000 2001C916.7 2001 833.3 2001 750 2001C666.7 2001 583.3 2001 500 2001C416.7 2001 333.3 2001 250 2001C166.7 2001 83.3 2001 41.7 2001L0 2001Z" fill="#858585"></path><path d="M0 1745L41.7 1727.7C83.3 1710.3 166.7 1675.7 250 1658C333.3 1640.3 416.7 1639.7 500 1651.3C583.3 1663 666.7 1687 750 1693C833.3 1699 916.7 1687 1000 1686.3C1083.3 1685.7 1166.7 1696.3 1250 1706C1333.3 1715.7 1416.7 1724.3 1500 1733.2C1583.3 1742 1666.7 1751 1750 1742.2C1833.3 1733.3 1916.7 1706.7 2000 1698.3C2083.3 1690 2166.7 1700 2250 1706.3C2333.3 1712.7 2416.7 1715.3 2500 1727.5C2583.3 1739.7 2666.7 1761.3 2750 1766C2833.3 1770.7 2916.7 1758.3 3000 1750.2C3083.3 1742 3166.7 1738 3250 1739.7C3333.3 1741.3 3416.7 1748.7 3500 1749.8C3583.3 1751 3666.7 1746 3750 1729.3C3833.3 1712.7 3916.7 1684.3 3958.3 1670.2L4000 1656L4000 2001L3958.3 2001C3916.7 2001 3833.3 2001 3750 2001C3666.7 2001 3583.3 2001 3500 2001C3416.7 2001 3333.3 2001 3250 2001C3166.7 2001 3083.3 2001 3000 2001C2916.7 2001 2833.3 2001 2750 2001C2666.7 2001 2583.3 2001 2500 2001C2416.7 2001 2333.3 2001 2250 2001C2166.7 2001 2083.3 2001 2000 2001C1916.7 2001 1833.3 2001 1750 2001C1666.7 2001 1583.3 2001 1500 2001C1416.7 2001 1333.3 2001 1250 2001C1166.7 2001 1083.3 2001 1000 2001C916.7 2001 833.3 2001 750 2001C666.7 2001 583.3 2001 500 2001C416.7 2001 333.3 2001 250 2001C166.7 2001 83.3 2001 41.7 2001L0 2001Z" fill="#9a9a9a"></path><path d="M0 1729L41.7 1728.5C83.3 1728 166.7 1727 250 1734.2C333.3 1741.3 416.7 1756.7 500 1752.3C583.3 1748 666.7 1724 750 1714C833.3 1704 916.7 1708 1000 1712.5C1083.3 1717 1166.7 1722 1250 1722.2C1333.3 1722.3 1416.7 1717.7 1500 1734.8C1583.3 1752 1666.7 1791 1750 1810.7C1833.3 1830.3 1916.7 1830.7 2000 1822C2083.3 1813.3 2166.7 1795.7 2250 1791C2333.3 1786.3 2416.7 1794.7 2500 1783.2C2583.3 1771.7 2666.7 1740.3 2750 1744.2C2833.3 1748 2916.7 1787 3000 1806.2C3083.3 1825.3 3166.7 1824.7 3250 1823.7C3333.3 1822.7 3416.7 1821.3 3500 1818C3583.3 1814.7 3666.7 1809.3 3750 1791.5C3833.3 1773.7 3916.7 1743.3 3958.3 1728.2L4000 1713L4000 2001L3958.3 2001C3916.7 2001 3833.3 2001 3750 2001C3666.7 2001 3583.3 2001 3500 2001C3416.7 2001 3333.3 2001 3250 2001C3166.7 2001 3083.3 2001 3000 2001C2916.7 2001 2833.3 2001 2750 2001C2666.7 2001 2583.3 2001 2500 2001C2416.7 2001 2333.3 2001 2250 2001C2166.7 2001 2083.3 2001 2000 2001C1916.7 2001 1833.3 2001 1750 2001C1666.7 2001 1583.3 2001 1500 2001C1416.7 2001 1333.3 2001 1250 2001C1166.7 2001 1083.3 2001 1000 2001C916.7 2001 833.3 2001 750 2001C666.7 2001 583.3 2001 500 2001C416.7 2001 333.3 2001 250 2001C166.7 2001 83.3 2001 41.7 2001L0 2001Z" fill="#b0b0b0"></path><path d="M0 1863L41.7 1850.3C83.3 1837.7 166.7 1812.3 250 1811.3C333.3 1810.3 416.7 1833.7 500 1839.7C583.3 1845.7 666.7 1834.3 750 1824.3C833.3 1814.3 916.7 1805.7 1000 1813.3C1083.3 1821 1166.7 1845 1250 1855.2C1333.3 1865.3 1416.7 1861.7 1500 1852.5C1583.3 1843.3 1666.7 1828.7 1750 1830.3C1833.3 1832 1916.7 1850 2000 1848C2083.3 1846 2166.7 1824 2250 1807.3C2333.3 1790.7 2416.7 1779.3 2500 1774.3C2583.3 1769.3 2666.7 1770.7 2750 1784.3C2833.3 1798 2916.7 1824 3000 1825.7C3083.3 1827.3 3166.7 1804.7 3250 1806.8C3333.3 1809 3416.7 1836 3500 1837.7C3583.3 1839.3 3666.7 1815.7 3750 1809.2C3833.3 1802.7 3916.7 1813.3 3958.3 1818.7L4000 1824L4000 2001L3958.3 2001C3916.7 2001 3833.3 2001 3750 2001C3666.7 2001 3583.3 2001 3500 2001C3416.7 2001 3333.3 2001 3250 2001C3166.7 2001 3083.3 2001 3000 2001C2916.7 2001 2833.3 2001 2750 2001C2666.7 2001 2583.3 2001 2500 2001C2416.7 2001 2333.3 2001 2250 2001C2166.7 2001 2083.3 2001 2000 2001C1916.7 2001 1833.3 2001 1750 2001C1666.7 2001 1583.3 2001 1500 2001C1416.7 2001 1333.3 2001 1250 2001C1166.7 2001 1083.3 2001 1000 2001C916.7 2001 833.3 2001 750 2001C666.7 2001 583.3 2001 500 2001C416.7 2001 333.3 2001 250 2001C166.7 2001 83.3 2001 41.7 2001L0 2001Z" fill="#c6c6c6"></path><path d="M0 1856L41.7 1862.2C83.3 1868.3 166.7 1880.7 250 1875C333.3 1869.3 416.7 1845.7 500 1842.5C583.3 1839.3 666.7 1856.7 750 1861.3C833.3 1866 916.7 1858 1000 1857.8C1083.3 1857.7 1166.7 1865.3 1250 1861C1333.3 1856.7 1416.7 1840.3 1500 1841.5C1583.3 1842.7 1666.7 1861.3 1750 1873.3C1833.3 1885.3 1916.7 1890.7 2000 1883.7C2083.3 1876.7 2166.7 1857.3 2250 1846.7C2333.3 1836 2416.7 1834 2500 1833.2C2583.3 1832.3 2666.7 1832.7 2750 1839.5C2833.3 1846.3 2916.7 1859.7 3000 1859.7C3083.3 1859.7 3166.7 1846.3 3250 1844.7C3333.3 1843 3416.7 1853 3500 1855C3583.3 1857 3666.7 1851 3750 1851.8C3833.3 1852.7 3916.7 1860.3 3958.3 1864.2L4000 1868L4000 2001L3958.3 2001C3916.7 2001 3833.3 2001 3750 2001C3666.7 2001 3583.3 2001 3500 2001C3416.7 2001 3333.3 2001 3250 2001C3166.7 2001 3083.3 2001 3000 2001C2916.7 2001 2833.3 2001 2750 2001C2666.7 2001 2583.3 2001 2500 2001C2416.7 2001 2333.3 2001 2250 2001C2166.7 2001 2083.3 2001 2000 2001C1916.7 2001 1833.3 2001 1750 2001C1666.7 2001 1583.3 2001 1500 2001C1416.7 2001 1333.3 2001 1250 2001C1166.7 2001 1083.3 2001 1000 2001C916.7 2001 833.3 2001 750 2001C666.7 2001 583.3 2001 500 2001C416.7 2001 333.3 2001 250 2001C166.7 2001 83.3 2001 41.7 2001L0 2001Z" fill="#dcdcdc"></path><path d="M0 1916L41.7 1910.5C83.3 1905 166.7 1894 250 1890.7C333.3 1887.3 416.7 1891.7 500 1896.7C583.3 1901.7 666.7 1907.3 750 1912.7C833.3 1918 916.7 1923 1000 1919C1083.3 1915 1166.7 1902 1250 1894.3C1333.3 1886.7 1416.7 1884.3 1500 1886.8C1583.3 1889.3 1666.7 1896.7 1750 1904.5C1833.3 1912.3 1916.7 1920.7 2000 1924.5C2083.3 1928.3 2166.7 1927.7 2250 1920.3C2333.3 1913 2416.7 1899 2500 1896.5C2583.3 1894 2666.7 1903 2750 1902C2833.3 1901 2916.7 1890 3000 1893.3C3083.3 1896.7 3166.7 1914.3 3250 1915.2C3333.3 1916 3416.7 1900 3500 1898.7C3583.3 1897.3 3666.7 1910.7 3750 1917.7C3833.3 1924.7 3916.7 1925.3 3958.3 1925.7L4000 1926L4000 2001L3958.3 2001C3916.7 2001 3833.3 2001 3750 2001C3666.7 2001 3583.3 2001 3500 2001C3416.7 2001 3333.3 2001 3250 2001C3166.7 2001 3083.3 2001 3000 2001C2916.7 2001 2833.3 2001 2750 2001C2666.7 2001 2583.3 2001 2500 2001C2416.7 2001 2333.3 2001 2250 2001C2166.7 2001 2083.3 2001 2000 2001C1916.7 2001 1833.3 2001 1750 2001C1666.7 2001 1583.3 2001 1500 2001C1416.7 2001 1333.3 2001 1250 2001C1166.7 2001 1083.3 2001 1000 2001C916.7 2001 833.3 2001 750 2001C666.7 2001 583.3 2001 500 2001C416.7 2001 333.3 2001 250 2001C166.7 2001 83.3 2001 41.7 2001L0 2001Z" fill="#f3f3f3"></path></svg>