<svg id="visual" viewBox="0 0 4000 2000" width="4000" height="2000" xmlns="http://www.w3.org/2000/svg" xmlns:xlink="http://www.w3.org/1999/xlink" version="1.1"><rect x="0" y="0" width="4000" height="2000" fill="#161616"></rect><path d="M0 707L74 674C148 641 296 575 444.2 562.2C592.3 549.3 740.7 589.7 888.8 620C1037 650.3 1185 670.7 1333.2 714.2C1481.3 757.7 1629.7 824.3 1777.8 813.8C1926 803.3 2074 715.7 2222.2 669C2370.3 622.3 2518.7 616.7 2666.8 615C2815 613.3 2963 615.7 3111.2 616.2C3259.3 616.7 3407.7 615.3 3555.8 619.7C3704 624 3852 634 3926 639L4000 644L4000 0L3926 0C3852 0 3704 0 3555.8 0C3407.7 0 3259.3 0 3111.2 0C2963 0 2815 0 2666.8 0C2518.7 0 2370.3 0 2222.2 0C2074 0 1926 0 1777.8 0C1629.7 0 1481.3 0 1333.2 0C1185 0 1037 0 888.8 0C740.7 0 592.3 0 444.2 0C296 0 148 0 74 0L0 0Z" fill="#161616"></path><path d="M0 542L74 534.8C148 527.7 296 513.3 444.2 547C592.3 580.7 740.7 662.3 888.8 678.7C1037 695 1185 646 1333.2 631.8C1481.3 617.7 1629.7 638.3 1777.8 656.7C1926 675 2074 691 2222.2 718.7C2370.3 746.3 2518.7 785.7 2666.8 776.5C2815 767.3 2963 709.7 3111.2 691.8C3259.3 674 3407.7 696 3555.8 715.7C3704 735.3 3852 752.7 3926 761.3L4000 770L4000 0L3926 0C3852 0 3704 0 3555.8 0C3407.7 0 3259.3 0 3111.2 0C2963 0 2815 0 2666.8 0C2518.7 0 2370.3 0 2222.2 0C2074 0 1926 0 1777.8 0C1629.7 0 1481.3 0 1333.2 0C1185 0 1037 0 888.8 0C740.7 0 592.3 0 444.2 0C296 0 148 0 74 0L0 0Z" fill="#282828"></path><path d="M0 483L74 493.2C148 503.3 296 523.7 444.2 565.3C592.3 607 740.7 670 888.8 664.3C1037 658.7 1185 584.3 1333.2 586C1481.3 587.7 1629.7 665.3 1777.8 703.2C1926 741 2074 739 2222.2 685.7C2370.3 632.3 2518.7 527.7 2666.8 507.2C2815 486.7 2963 550.3 3111.2 593.7C3259.3 637 3407.7 660 3555.8 632.2C3704 604.3 3852 525.7 3926 486.3L4000 447L4000 0L3926 0C3852 0 3704 0 3555.8 0C3407.7 0 3259.3 0 3111.2 0C2963 0 2815 0 2666.8 0C2518.7 0 2370.3 0 2222.2 0C2074 0 1926 0 1777.8 0C1629.7 0 1481.3 0 1333.2 0C1185 0 1037 0 888.8 0C740.7 0 592.3 0 444.2 0C296 0 148 0 74 0L0 0Z" fill="#3b3b3b"></path><path d="M0 462L74 486.8C148 511.7 296 561.3 444.2 558.7C592.3 556 740.7 501 888.8 467.8C1037 434.7 1185 423.3 1333.2 422.5C1481.3 421.7 1629.7 431.3 1777.8 427.8C1926 424.3 2074 407.7 2222.2 430.8C2370.3 454 2518.7 517 2666.8 523.8C2815 530.7 2963 481.3 3111.2 468.3C3259.3 455.3 3407.7 478.7 3555.8 490.7C3704 502.7 3852 503.3 3926 503.7L4000 504L4000 0L3926 0C3852 0 3704 0 3555.8 0C3407.7 0 3259.3 0 3111.2 0C2963 0 2815 0 2666.8 0C2518.7 0 2370.3 0 2222.2 0C2074 0 1926 0 1777.8 0C1629.7 0 1481.3 0 1333.2 0C1185 0 1037 0 888.8 0C740.7 0 592.3 0 444.2 0C296 0 148 0 74 0L0 0Z" fill="#505050"></path><path d="M0 461L74 466.8C148 472.7 296 484.3 444.2 468.5C592.3 452.7 740.7 409.3 888.8 417.8C1037 426.3 1185 486.7 1333.2 502.3C1481.3 518 1629.7 489 1777.8 455.7C1926 422.3 2074 384.7 2222.2 374.8C2370.3 365 2518.7 383 2666.8 408.5C2815 434 2963 467 3111.2 486C3259.3 505 3407.7 510 3555.8 519.5C3704 529 3852 543 3926 550L4000 557L4000 0L3926 0C3852 0 3704 0 3555.8 0C3407.7 0 3259.3 0 3111.2 0C2963 0 2815 0 2666.8 0C2518.7 0 2370.3 0 2222.2 0C2074 0 1926 0 1777.8 0C1629.7 0 1481.3 0 1333.2 0C1185 0 1037 0 888.8 0C740.7 0 592.3 0 444.2 0C296 0 148 0 74 0L0 0Z" fill="#656565"></path><path d="M0 411L74 400.5C148 390 296 369 444.2 369.8C592.3 370.7 740.7 393.3 888.8 420.8C1037 448.3 1185 480.7 1333.2 496.5C1481.3 512.3 1629.7 511.7 1777.8 478.2C1926 444.7 2074 378.3 2222.2 362.8C2370.3 347.3 2518.7 382.7 2666.8 394.2C2815 405.7 2963 393.3 3111.2 410C3259.3 426.7 3407.7 472.3 3555.8 456.3C3704 440.3 3852 362.7 3926 323.8L4000 285L4000 0L3926 0C3852 0 3704 0 3555.8 0C3407.7 0 3259.3 0 3111.2 0C2963 0 2815 0 2666.8 0C2518.7 0 2370.3 0 2222.2 0C2074 0 1926 0 1777.8 0C1629.7 0 1481.3 0 1333.2 0C1185 0 1037 0 888.8 0C740.7 0 592.3 0 444.2 0C296 0 148 0 74 0L0 0Z" fill="#7b7b7b"></path><path d="M0 446L74 427.8C148 409.7 296 373.3 444.2 374.3C592.3 375.3 740.7 413.7 888.8 412C1037 410.3 1185 368.7 1333.2 364.5C1481.3 360.3 1629.7 393.7 1777.8 385.2C1926 376.7 2074 326.3 2222.2 303.2C2370.3 280 2518.7 284 2666.8 293.7C2815 303.3 2963 318.7 3111.2 331C3259.3 343.3 3407.7 352.7 3555.8 338.5C3704 324.3 3852 286.7 3926 267.8L4000 249L4000 0L3926 0C3852 0 3704 0 3555.8 0C3407.7 0 3259.3 0 3111.2 0C2963 0 2815 0 2666.8 0C2518.7 0 2370.3 0 2222.2 0C2074 0 1926 0 1777.8 0C1629.7 0 1481.3 0 1333.2 0C1185 0 1037 0 888.8 0C740.7 0 592.3 0 444.2 0C296 0 148 0 74 0L0 0Z" fill="#929292"></path><path d="M0 275L74 288.5C148 302 296 329 444.2 344.8C592.3 360.7 740.7 365.3 888.8 363.8C1037 362.3 1185 354.7 1333.2 327C1481.3 299.3 1629.7 251.7 1777.8 251.2C1926 250.7 2074 297.3 2222.2 313C2370.3 328.7 2518.7 313.3 2666.8 314.8C2815 316.3 2963 334.7 3111.2 334.5C3259.3 334.3 3407.7 315.7 3555.8 293C3704 270.3 3852 243.7 3926 230.3L4000 217L4000 0L3926 0C3852 0 3704 0 3555.8 0C3407.7 0 3259.3 0 3111.2 0C2963 0 2815 0 2666.8 0C2518.7 0 2370.3 0 2222.2 0C2074 0 1926 0 1777.8 0C1629.7 0 1481.3 0 1333.2 0C1185 0 1037 0 888.8 0C740.7 0 592.3 0 444.2 0C296 0 148 0 74 0L0 0Z" fill="#a9a9a9"></path><path d="M0 178L74 186.5C148 195 296 212 444.2 215.7C592.3 219.3 740.7 209.7 888.8 219.3C1037 229 1185 258 1333.2 266.3C1481.3 274.7 1629.7 262.3 1777.8 246C1926 229.7 2074 209.3 2222.2 199.5C2370.3 189.7 2518.7 190.3 2666.8 192.5C2815 194.7 2963 198.3 3111.2 214.7C3259.3 231 3407.7 260 3555.8 259.5C3704 259 3852 229 3926 214L4000 199L4000 0L3926 0C3852 0 3704 0 3555.8 0C3407.7 0 3259.3 0 3111.2 0C2963 0 2815 0 2666.8 0C2518.7 0 2370.3 0 2222.2 0C2074 0 1926 0 1777.8 0C1629.7 0 1481.3 0 1333.2 0C1185 0 1037 0 888.8 0C740.7 0 592.3 0 444.2 0C296 0 148 0 74 0L0 0Z" fill="#c1c1c1"></path><path d="M0 197L74 200.5C148 204 296 211 444.2 215.5C592.3 220 740.7 222 888.8 212.5C1037 203 1185 182 1333.2 181.2C1481.3 180.3 1629.7 199.7 1777.8 194.7C1926 189.7 2074 160.3 2222.2 156C2370.3 151.7 2518.7 172.3 2666.8 181C2815 189.7 2963 186.3 3111.2 183.2C3259.3 180 3407.7 177 3555.8 181.7C3704 186.3 3852 198.7 3926 204.8L4000 211L4000 0L3926 0C3852 0 3704 0 3555.8 0C3407.7 0 3259.3 0 3111.2 0C2963 0 2815 0 2666.8 0C2518.7 0 2370.3 0 2222.2 0C2074 0 1926 0 1777.8 0C1629.7 0 1481.3 0 1333.2 0C1185 0 1037 0 888.8 0C740.7 0 592.3 0 444.2 0C296 0 148 0 74 0L0 0Z" fill="#dadada"></path><path d="M0 142L74 134.3C148 126.7 296 111.3 444.2 102.7C592.3 94 740.7 92 888.8 96C1037 100 1185 110 1333.2 119.7C1481.3 129.3 1629.7 138.7 1777.8 141.8C1926 145 2074 142 2222.2 139.2C2370.3 136.3 2518.7 133.7 2666.8 133.3C2815 133 2963 135 3111.2 127.7C3259.3 120.3 3407.7 103.7 3555.8 102.5C3704 101.3 3852 115.7 3926 122.8L4000 130L4000 0L3926 0C3852 0 3704 0 3555.8 0C3407.7 0 3259.3 0 3111.2 0C2963 0 2815 0 2666.8 0C2518.7 0 2370.3 0 2222.2 0C2074 0 1926 0 1777.8 0C1629.7 0 1481.3 0 1333.2 0C1185 0 1037 0 888.8 0C740.7 0 592.3 0 444.2 0C296 0 148 0 74 0L0 0Z" fill="#f3f3f3"></path></svg>