<svg id="visual" viewBox="0 0 900 600" width="900" height="600" xmlns="http://www.w3.org/2000/svg" xmlns:xlink="http://www.w3.org/1999/xlink" version="1.1"><rect x="0" y="0" width="900" height="600" fill="#161616"></rect><path d="M0 201L18.8 178C37.7 155 75.3 109 112.8 101.3C150.3 93.7 187.7 124.3 225.2 133.2C262.7 142 300.3 129 337.8 113.8C375.3 98.7 412.7 81.3 450.2 75.3C487.7 69.3 525.3 74.7 562.8 88.8C600.3 103 637.7 126 675.2 137.2C712.7 148.3 750.3 147.7 787.8 133.7C825.3 119.7 862.7 92.3 881.3 78.7L900 65L900 0L881.3 0C862.7 0 825.3 0 787.8 0C750.3 0 712.7 0 675.2 0C637.7 0 600.3 0 562.8 0C525.3 0 487.7 0 450.2 0C412.7 0 375.3 0 337.8 0C300.3 0 262.7 0 225.2 0C187.7 0 150.3 0 112.8 0C75.3 0 37.7 0 18.8 0L0 0Z" fill="#161616"></path><path d="M0 116L18.8 116.2C37.7 116.3 75.3 116.7 112.8 112C150.3 107.3 187.7 97.7 225.2 88.7C262.7 79.7 300.3 71.3 337.8 66C375.3 60.7 412.7 58.3 450.2 60.3C487.7 62.3 525.3 68.7 562.8 78.7C600.3 88.7 637.7 102.3 675.2 103C712.7 103.7 750.3 91.3 787.8 102.5C825.3 113.7 862.7 148.3 881.3 165.7L900 183L900 0L881.3 0C862.7 0 825.3 0 787.8 0C750.3 0 712.7 0 675.2 0C637.7 0 600.3 0 562.8 0C525.3 0 487.7 0 450.2 0C412.7 0 375.3 0 337.8 0C300.3 0 262.7 0 225.2 0C187.7 0 150.3 0 112.8 0C75.3 0 37.7 0 18.8 0L0 0Z" fill="#262626"></path><path d="M0 100L18.8 97.2C37.7 94.3 75.3 88.7 112.8 96.7C150.3 104.7 187.7 126.3 225.2 134.2C262.7 142 300.3 136 337.8 129C375.3 122 412.7 114 450.2 121C487.7 128 525.3 150 562.8 146.7C600.3 143.3 637.7 114.7 675.2 112.8C712.7 111 750.3 136 787.8 143.7C825.3 151.3 862.7 141.7 881.3 136.8L900 132L900 0L881.3 0C862.7 0 825.3 0 787.8 0C750.3 0 712.7 0 675.2 0C637.7 0 600.3 0 562.8 0C525.3 0 487.7 0 450.2 0C412.7 0 375.3 0 337.8 0C300.3 0 262.7 0 225.2 0C187.7 0 150.3 0 112.8 0C75.3 0 37.7 0 18.8 0L0 0Z" fill="#383838"></path><path d="M0 45L18.8 49C37.7 53 75.3 61 112.8 63C150.3 65 187.7 61 225.2 56.2C262.7 51.3 300.3 45.7 337.8 42.7C375.3 39.7 412.7 39.3 450.2 50.5C487.7 61.7 525.3 84.3 562.8 99.3C600.3 114.3 637.7 121.7 675.2 125.2C712.7 128.7 750.3 128.3 787.8 124.3C825.3 120.3 862.7 112.7 881.3 108.8L900 105L900 0L881.3 0C862.7 0 825.3 0 787.8 0C750.3 0 712.7 0 675.2 0C637.7 0 600.3 0 562.8 0C525.3 0 487.7 0 450.2 0C412.7 0 375.3 0 337.8 0C300.3 0 262.7 0 225.2 0C187.7 0 150.3 0 112.8 0C75.3 0 37.7 0 18.8 0L0 0Z" fill="#4a4a4a"></path><path d="M0 80L18.8 77.2C37.7 74.3 75.3 68.7 112.8 78C150.3 87.3 187.7 111.7 225.2 123C262.7 134.3 300.3 132.7 337.8 126.8C375.3 121 412.7 111 450.2 109.7C487.7 108.3 525.3 115.7 562.8 107.8C600.3 100 637.7 77 675.2 70.5C712.7 64 750.3 74 787.8 86.2C825.3 98.3 862.7 112.7 881.3 119.8L900 127L900 0L881.3 0C862.7 0 825.3 0 787.8 0C750.3 0 712.7 0 675.2 0C637.7 0 600.3 0 562.8 0C525.3 0 487.7 0 450.2 0C412.7 0 375.3 0 337.8 0C300.3 0 262.7 0 225.2 0C187.7 0 150.3 0 112.8 0C75.3 0 37.7 0 18.8 0L0 0Z" fill="#5d5d5d"></path><path d="M0 72L18.8 80.5C37.7 89 75.3 106 112.8 102.2C150.3 98.3 187.7 73.7 225.2 68.7C262.7 63.7 300.3 78.3 337.8 78C375.3 77.7 412.7 62.3 450.2 66.5C487.7 70.7 525.3 94.3 562.8 106C600.3 117.7 637.7 117.3 675.2 113C712.7 108.7 750.3 100.3 787.8 95.7C825.3 91 862.7 90 881.3 89.5L900 89L900 0L881.3 0C862.7 0 825.3 0 787.8 0C750.3 0 712.7 0 675.2 0C637.7 0 600.3 0 562.8 0C525.3 0 487.7 0 450.2 0C412.7 0 375.3 0 337.8 0C300.3 0 262.7 0 225.2 0C187.7 0 150.3 0 112.8 0C75.3 0 37.7 0 18.8 0L0 0Z" fill="#717171"></path><path d="M0 43L18.8 50.3C37.7 57.7 75.3 72.3 112.8 74C150.3 75.7 187.7 64.3 225.2 56C262.7 47.7 300.3 42.3 337.8 47C375.3 51.7 412.7 66.3 450.2 66.7C487.7 67 525.3 53 562.8 50.2C600.3 47.3 637.7 55.7 675.2 63.5C712.7 71.3 750.3 78.7 787.8 78.7C825.3 78.7 862.7 71.3 881.3 67.7L900 64L900 0L881.3 0C862.7 0 825.3 0 787.8 0C750.3 0 712.7 0 675.2 0C637.7 0 600.3 0 562.8 0C525.3 0 487.7 0 450.2 0C412.7 0 375.3 0 337.8 0C300.3 0 262.7 0 225.2 0C187.7 0 150.3 0 112.8 0C75.3 0 37.7 0 18.8 0L0 0Z" fill="#858585"></path><path d="M0 91L18.8 88.8C37.7 86.7 75.3 82.3 112.8 75.2C150.3 68 187.7 58 225.2 53.2C262.7 48.3 300.3 48.7 337.8 50C375.3 51.3 412.7 53.7 450.2 50.8C487.7 48 525.3 40 562.8 37.5C600.3 35 637.7 38 675.2 37.5C712.7 37 750.3 33 787.8 32C825.3 31 862.7 33 881.3 34L900 35L900 0L881.3 0C862.7 0 825.3 0 787.8 0C750.3 0 712.7 0 675.2 0C637.7 0 600.3 0 562.8 0C525.3 0 487.7 0 450.2 0C412.7 0 375.3 0 337.8 0C300.3 0 262.7 0 225.2 0C187.7 0 150.3 0 112.8 0C75.3 0 37.7 0 18.8 0L0 0Z" fill="#9a9a9a"></path><path d="M0 72L18.8 65.5C37.7 59 75.3 46 112.8 42C150.3 38 187.7 43 225.2 49.7C262.7 56.3 300.3 64.7 337.8 65.8C375.3 67 412.7 61 450.2 56.5C487.7 52 525.3 49 562.8 48.8C600.3 48.7 637.7 51.3 675.2 48.2C712.7 45 750.3 36 787.8 31C825.3 26 862.7 25 881.3 24.5L900 24L900 0L881.3 0C862.7 0 825.3 0 787.8 0C750.3 0 712.7 0 675.2 0C637.7 0 600.3 0 562.8 0C525.3 0 487.7 0 450.2 0C412.7 0 375.3 0 337.8 0C300.3 0 262.7 0 225.2 0C187.7 0 150.3 0 112.8 0C75.3 0 37.7 0 18.8 0L0 0Z" fill="#b0b0b0"></path><path d="M0 36L18.8 34.3C37.7 32.7 75.3 29.3 112.8 27C150.3 24.7 187.7 23.3 225.2 28.2C262.7 33 300.3 44 337.8 50.5C375.3 57 412.7 59 450.2 54.2C487.7 49.3 525.3 37.7 562.8 37.5C600.3 37.3 637.7 48.7 675.2 48.3C712.7 48 750.3 36 787.8 29.5C825.3 23 862.7 22 881.3 21.5L900 21L900 0L881.3 0C862.7 0 825.3 0 787.8 0C750.3 0 712.7 0 675.2 0C637.7 0 600.3 0 562.8 0C525.3 0 487.7 0 450.2 0C412.7 0 375.3 0 337.8 0C300.3 0 262.7 0 225.2 0C187.7 0 150.3 0 112.8 0C75.3 0 37.7 0 18.8 0L0 0Z" fill="#c6c6c6"></path><path d="M0 36L18.8 32.2C37.7 28.3 75.3 20.7 112.8 22C150.3 23.3 187.7 33.7 225.2 38C262.7 42.3 300.3 40.7 337.8 40.3C375.3 40 412.7 41 450.2 38C487.7 35 525.3 28 562.8 24.5C600.3 21 637.7 21 675.2 24.7C712.7 28.3 750.3 35.7 787.8 38.3C825.3 41 862.7 39 881.3 38L900 37L900 0L881.3 0C862.7 0 825.3 0 787.8 0C750.3 0 712.7 0 675.2 0C637.7 0 600.3 0 562.8 0C525.3 0 487.7 0 450.2 0C412.7 0 375.3 0 337.8 0C300.3 0 262.7 0 225.2 0C187.7 0 150.3 0 112.8 0C75.3 0 37.7 0 18.8 0L0 0Z" fill="#dcdcdc"></path><path d="M0 20L18.8 18.3C37.7 16.7 75.3 13.3 112.8 13C150.3 12.7 187.7 15.3 225.2 17C262.7 18.7 300.3 19.3 337.8 21.3C375.3 23.3 412.7 26.7 450.2 27.8C487.7 29 525.3 28 562.8 25.3C600.3 22.7 637.7 18.3 675.2 16.2C712.7 14 750.3 14 787.8 16.3C825.3 18.7 862.7 23.3 881.3 25.7L900 28L900 0L881.3 0C862.7 0 825.3 0 787.8 0C750.3 0 712.7 0 675.2 0C637.7 0 600.3 0 562.8 0C525.3 0 487.7 0 450.2 0C412.7 0 375.3 0 337.8 0C300.3 0 262.7 0 225.2 0C187.7 0 150.3 0 112.8 0C75.3 0 37.7 0 18.8 0L0 0Z" fill="#f3f3f3"></path></svg>