<svg width="157" height="28" viewBox="0 0 157 28" fill="none" xmlns="http://www.w3.org/2000/svg">
<path d="M8.88 23.12C7.776 23.12 6.784 22.872 5.904 22.376C5.024 21.864 4.328 21.128 3.816 20.168C3.304 19.208 3.048 18.048 3.048 16.688C3.048 15.312 3.304 14.152 3.816 13.208C4.344 12.248 5.048 11.52 5.928 11.024C6.808 10.528 7.792 10.28 8.88 10.28C10.08 10.28 11.152 10.552 12.096 11.096C13.056 11.624 13.808 12.368 14.352 13.328C14.896 14.288 15.168 15.408 15.168 16.688C15.168 17.952 14.896 19.072 14.352 20.048C13.808 21.008 13.056 21.76 12.096 22.304C11.152 22.848 10.08 23.12 8.88 23.12ZM2.376 23V5.192H4.08V14.12L3.84 16.664L4.008 19.208V23H2.376ZM8.76 21.608C9.656 21.608 10.456 21.408 11.16 21.008C11.864 20.592 12.424 20.016 12.84 19.28C13.256 18.528 13.464 17.664 13.464 16.688C13.464 15.696 13.256 14.832 12.84 14.096C12.424 13.36 11.864 12.792 11.16 12.392C10.456 11.976 9.656 11.768 8.76 11.768C7.864 11.768 7.056 11.976 6.336 12.392C5.632 12.792 5.072 13.36 4.656 14.096C4.256 14.832 4.056 15.696 4.056 16.688C4.056 17.664 4.256 18.528 4.656 19.28C5.072 20.016 5.632 20.592 6.336 21.008C7.056 21.408 7.864 21.608 8.76 21.608ZM23.9936 23.12C22.6816 23.12 21.5296 22.848 20.5376 22.304C19.5456 21.744 18.7696 20.984 18.2096 20.024C17.6496 19.048 17.3696 17.936 17.3696 16.688C17.3696 15.44 17.6336 14.336 18.1616 13.376C18.7056 12.416 19.4416 11.664 20.3696 11.12C21.3136 10.56 22.3696 10.28 23.5376 10.28C24.7216 10.28 25.7696 10.552 26.6816 11.096C27.6096 11.624 28.3376 12.376 28.8656 13.352C29.3936 14.312 29.6576 15.424 29.6576 16.688C29.6576 16.768 29.6496 16.856 29.6336 16.952C29.6336 17.032 29.6336 17.12 29.6336 17.216H18.6656V15.944H28.7216L28.0496 16.448C28.0496 15.536 27.8496 14.728 27.4496 14.024C27.0656 13.304 26.5376 12.744 25.8656 12.344C25.1936 11.944 24.4176 11.744 23.5376 11.744C22.6736 11.744 21.8976 11.944 21.2096 12.344C20.5216 12.744 19.9856 13.304 19.6016 14.024C19.2176 14.744 19.0256 15.568 19.0256 16.496V16.76C19.0256 17.72 19.2336 18.568 19.6496 19.304C20.0816 20.024 20.6736 20.592 21.4256 21.008C22.1936 21.408 23.0656 21.608 24.0416 21.608C24.8096 21.608 25.5216 21.472 26.1776 21.2C26.8496 20.928 27.4256 20.512 27.9056 19.952L28.8656 21.056C28.3056 21.728 27.6016 22.24 26.7536 22.592C25.9216 22.944 25.0016 23.12 23.9936 23.12ZM39.558 10.28C40.582 10.28 41.478 10.48 42.246 10.88C43.03 11.264 43.638 11.856 44.07 12.656C44.518 13.456 44.742 14.464 44.742 15.68V23H43.038V15.848C43.038 14.52 42.702 13.52 42.03 12.848C41.374 12.16 40.446 11.816 39.246 11.816C38.35 11.816 37.566 12 36.894 12.368C36.238 12.72 35.726 13.24 35.358 13.928C35.006 14.6 34.83 15.416 34.83 16.376V23H33.126V10.4H34.758V13.856L34.494 13.208C34.894 12.296 35.534 11.584 36.414 11.072C37.294 10.544 38.342 10.28 39.558 10.28ZM47.4728 27.776C46.9607 27.776 46.4727 27.704 46.0087 27.56C45.5287 27.432 45.1287 27.232 44.8087 26.96L45.4087 25.664C45.9207 26.096 46.5768 26.312 47.3768 26.312C48.0488 26.312 48.5608 26.112 48.9128 25.712C49.2808 25.312 49.4648 24.72 49.4648 23.936V10.4H51.1688V23.936C51.1688 25.104 50.8488 26.032 50.2088 26.72C49.5848 27.424 48.6728 27.776 47.4728 27.776ZM50.3288 7.616C49.9768 7.616 49.6808 7.496 49.4408 7.256C49.2008 7.016 49.0808 6.728 49.0808 6.392C49.0808 6.056 49.2008 5.776 49.4408 5.552C49.6808 5.312 49.9768 5.192 50.3288 5.192C50.6808 5.192 50.9768 5.304 51.2168 5.528C51.4568 5.752 51.5768 6.032 51.5768 6.368C51.5768 6.72 51.4568 7.016 51.2168 7.256C50.9928 7.496 50.6968 7.616 50.3288 7.616ZM60.9467 23.12C59.7467 23.12 58.6667 22.848 57.7067 22.304C56.7627 21.76 56.0187 21.008 55.4747 20.048C54.9307 19.072 54.6587 17.952 54.6587 16.688C54.6587 15.408 54.9307 14.288 55.4747 13.328C56.0187 12.368 56.7627 11.624 57.7067 11.096C58.6667 10.552 59.7467 10.28 60.9467 10.28C62.0507 10.28 63.0347 10.528 63.8987 11.024C64.7787 11.52 65.4747 12.248 65.9867 13.208C66.5147 14.152 66.7787 15.312 66.7787 16.688C66.7787 18.048 66.5227 19.208 66.0107 20.168C65.4987 21.128 64.8027 21.864 63.9227 22.376C63.0587 22.872 62.0667 23.12 60.9467 23.12ZM61.0667 21.608C61.9627 21.608 62.7627 21.408 63.4667 21.008C64.1867 20.592 64.7467 20.016 65.1467 19.28C65.5627 18.528 65.7707 17.664 65.7707 16.688C65.7707 15.696 65.5627 14.832 65.1467 14.096C64.7467 13.36 64.1867 12.792 63.4667 12.392C62.7627 11.976 61.9627 11.768 61.0667 11.768C60.1867 11.768 59.3947 11.976 58.6907 12.392C57.9867 12.792 57.4267 13.36 57.0107 14.096C56.5947 14.832 56.3867 15.696 56.3867 16.688C56.3867 17.664 56.5947 18.528 57.0107 19.28C57.4267 20.016 57.9867 20.592 58.6907 21.008C59.3947 21.408 60.1867 21.608 61.0667 21.608ZM65.8187 23V19.208L65.9867 16.664L65.7467 14.12V5.192H67.4507V23H65.8187ZM77.5723 27.776C76.4203 27.776 75.3163 27.608 74.2603 27.272C73.2043 26.936 72.3483 26.456 71.6923 25.832L72.5563 24.536C73.1483 25.064 73.8763 25.48 74.7403 25.784C75.6203 26.104 76.5483 26.264 77.5243 26.264C79.1243 26.264 80.3003 25.888 81.0523 25.136C81.8043 24.4 82.1803 23.248 82.1803 21.68V18.536L82.4203 16.376L82.2523 14.216V10.4H83.8843V21.464C83.8843 23.64 83.3483 25.232 82.2763 26.24C81.2203 27.264 79.6523 27.776 77.5723 27.776ZM77.2603 22.52C76.0603 22.52 74.9803 22.264 74.0203 21.752C73.0603 21.224 72.3003 20.496 71.7403 19.568C71.1963 18.64 70.9243 17.576 70.9243 16.376C70.9243 15.176 71.1963 14.12 71.7403 13.208C72.3003 12.28 73.0603 11.56 74.0203 11.048C74.9803 10.536 76.0603 10.28 77.2603 10.28C78.3803 10.28 79.3883 10.512 80.2843 10.976C81.1803 11.44 81.8923 12.128 82.4203 13.04C82.9483 13.952 83.2123 15.064 83.2123 16.376C83.2123 17.688 82.9483 18.8 82.4203 19.712C81.8923 20.624 81.1803 21.32 80.2843 21.8C79.3883 22.28 78.3803 22.52 77.2603 22.52ZM77.4283 21.008C78.3563 21.008 79.1803 20.816 79.9003 20.432C80.6203 20.032 81.1883 19.488 81.6043 18.8C82.0203 18.096 82.2283 17.288 82.2283 16.376C82.2283 15.464 82.0203 14.664 81.6043 13.976C81.1883 13.288 80.6203 12.752 79.9003 12.368C79.1803 11.968 78.3563 11.768 77.4283 11.768C76.5163 11.768 75.6923 11.968 74.9563 12.368C74.2363 12.752 73.6683 13.288 73.2523 13.976C72.8523 14.664 72.6523 15.464 72.6523 16.376C72.6523 17.288 72.8523 18.096 73.2523 18.8C73.6683 19.488 74.2363 20.032 74.9563 20.432C75.6923 20.816 76.5163 21.008 77.4283 21.008ZM90.2385 23V6.92L91.0065 7.736H86.2785V6.2H91.9665V23H90.2385ZM102.87 23.144C101.382 23.144 100.126 22.816 99.1024 22.16C98.0784 21.488 97.3024 20.528 96.7744 19.28C96.2464 18.016 95.9824 16.504 95.9824 14.744C95.9824 12.84 96.3024 11.248 96.9424 9.968C97.5984 8.672 98.5024 7.696 99.6544 7.04C100.806 6.384 102.142 6.056 103.662 6.056C104.414 6.056 105.134 6.128 105.822 6.272C106.51 6.416 107.118 6.648 107.646 6.968L106.95 8.36C106.518 8.072 106.022 7.872 105.462 7.76C104.902 7.632 104.31 7.568 103.686 7.568C101.878 7.568 100.43 8.144 99.3424 9.296C98.2704 10.448 97.7344 12.168 97.7344 14.456C97.7344 14.808 97.7504 15.248 97.7824 15.776C97.8304 16.288 97.9264 16.8 98.0704 17.312L97.4704 16.856C97.6464 16.024 97.9904 15.32 98.5024 14.744C99.0144 14.152 99.6544 13.704 100.422 13.4C101.19 13.096 102.03 12.944 102.942 12.944C104.062 12.944 105.046 13.152 105.894 13.568C106.742 13.984 107.406 14.568 107.886 15.32C108.366 16.072 108.606 16.96 108.606 17.984C108.606 19.024 108.358 19.936 107.862 20.72C107.366 21.488 106.678 22.088 105.798 22.52C104.934 22.936 103.958 23.144 102.87 23.144ZM102.798 21.68C103.598 21.68 104.302 21.536 104.91 21.248C105.534 20.944 106.022 20.52 106.374 19.976C106.726 19.416 106.902 18.768 106.902 18.032C106.902 16.928 106.518 16.048 105.75 15.392C104.998 14.736 103.974 14.408 102.678 14.408C101.814 14.408 101.062 14.568 100.422 14.888C99.7824 15.208 99.2784 15.648 98.9104 16.208C98.5424 16.752 98.3584 17.376 98.3584 18.08C98.3584 18.688 98.5264 19.272 98.8624 19.832C99.1984 20.376 99.6944 20.824 100.35 21.176C101.022 21.512 101.838 21.68 102.798 21.68Z" fill="white"/>
<path d="M117.272 23.192C116.056 23.192 114.96 22.92 113.984 22.376C113.008 21.816 112.232 21.04 111.656 20.048C111.096 19.056 110.816 17.888 110.816 16.544C110.816 15.184 111.096 14.008 111.656 13.016C112.232 12.024 113.008 11.256 113.984 10.712C114.96 10.168 116.056 9.896 117.272 9.896C118.36 9.896 119.312 10.136 120.128 10.616C120.944 11.096 121.576 11.824 122.024 12.8C122.472 13.776 122.696 15.024 122.696 16.544C122.696 18.048 122.48 19.296 122.048 20.288C121.616 21.264 120.992 21.992 120.176 22.472C119.376 22.952 118.408 23.192 117.272 23.192ZM117.92 20.12C118.528 20.12 119.08 19.976 119.576 19.688C120.072 19.4 120.464 18.992 120.752 18.464C121.056 17.92 121.208 17.28 121.208 16.544C121.208 15.792 121.056 15.152 120.752 14.624C120.464 14.096 120.072 13.688 119.576 13.4C119.08 13.112 118.528 12.968 117.92 12.968C117.296 12.968 116.736 13.112 116.24 13.4C115.744 13.688 115.344 14.096 115.04 14.624C114.752 15.152 114.608 15.792 114.608 16.544C114.608 17.28 114.752 17.92 115.04 18.464C115.344 18.992 115.744 19.4 116.24 19.688C116.736 19.976 117.296 20.12 117.92 20.12ZM121.304 23V20.36L121.376 16.52L121.136 12.704V5.192H124.88V23H121.304ZM134.753 23.192C133.281 23.192 131.985 22.904 130.865 22.328C129.761 21.752 128.905 20.968 128.297 19.976C127.689 18.968 127.385 17.824 127.385 16.544C127.385 15.248 127.681 14.104 128.273 13.112C128.881 12.104 129.705 11.32 130.745 10.76C131.785 10.184 132.961 9.896 134.273 9.896C135.537 9.896 136.673 10.168 137.681 10.712C138.705 11.24 139.513 12.008 140.105 13.016C140.697 14.008 140.993 15.2 140.993 16.592C140.993 16.736 140.985 16.904 140.969 17.096C140.953 17.272 140.937 17.44 140.921 17.6H130.433V15.416H138.953L137.513 16.064C137.513 15.392 137.377 14.808 137.105 14.312C136.833 13.816 136.457 13.432 135.977 13.16C135.497 12.872 134.937 12.728 134.297 12.728C133.657 12.728 133.089 12.872 132.593 13.16C132.113 13.432 131.737 13.824 131.465 14.336C131.193 14.832 131.057 15.424 131.057 16.112V16.688C131.057 17.392 131.209 18.016 131.513 18.56C131.833 19.088 132.273 19.496 132.833 19.784C133.409 20.056 134.081 20.192 134.849 20.192C135.537 20.192 136.137 20.088 136.649 19.88C137.177 19.672 137.657 19.36 138.089 18.944L140.081 21.104C139.489 21.776 138.745 22.296 137.849 22.664C136.953 23.016 135.921 23.192 134.753 23.192ZM146.755 23L141.331 10.088H145.195L149.707 21.2H147.787L152.467 10.088H156.067L150.619 23H146.755Z" fill="url(#paint0_linear_10_113)"/>
<defs>
<linearGradient id="paint0_linear_10_113" x1="110" y1="0" x2="156" y2="21.16" gradientUnits="userSpaceOnUse">
<stop stop-color="#FF4D4D"/>
<stop offset="1" stop-color="#F9CB28"/>
</linearGradient>
</defs>
</svg>
