<svg width="680" height="440" viewBox="0 0 680 440" fill="none" xmlns="http://www.w3.org/2000/svg">
<rect x="2.5" y="2.5" width="675" height="435" stroke="white" stroke-width="5"/>
<rect x="2.5" y="2.5" width="675" height="59" stroke="white" stroke-width="5"/>
<rect x="66.5002" y="142.5" width="81" height="19" fill="none" stroke="#DBDBDB" stroke-width="5"/>
<rect x="66.5002" y="178.5" width="235" height="59" fill="none" stroke="#DBDBDB" stroke-width="5"/>
<rect x="40" y="177" width="98" height="2" transform="rotate(90 40 177)" fill="none" stroke="#DBDBDB" stroke-width="2"/>
<rect x="66.5002" y="254.5" width="235" height="7" fill="none" stroke="#A8A5A5" stroke-width="5"/>
<rect x="66.5002" y="270.5" width="195" height="7" fill="none" stroke="#A8A5A5" stroke-width="5"/>
<rect x="66.5002" y="286.5" width="174" height="7" fill="none" stroke="#A8A5A5" stroke-width="5"/>
<rect x="66.5002" y="310.5" width="81" height="19" fill="none" stroke="#5F5F5F" stroke-width="5"/>
<rect x="66.5" y="22.5" width="81" height="19" fill="none" stroke="#DBDBDB" stroke-width="5"/>
<line x1="64.1292" y1="20.517" x2="150.129" y2="43.517" stroke="#4B4B4B"/>
<line x1="63.8708" y1="43.517" x2="149.871" y2="20.517" stroke="#4B4B4B"/>
<rect x="378.5" y="130.5" width="235" height="191" fill="none" stroke="#DBDBDB" stroke-width="5"/>
<line x1="616.316" y1="128.387" x2="376.316" y2="324.387" stroke="#4B4B4B"/>
<line x1="376.315" y1="128.612" x2="616.315" y2="323.612" stroke="#4B4B4B"/>
<circle cx="340" cy="388" r="13.5" fill="none" stroke="#5F5F5F" stroke-width="5"/>
</svg>
