<svg width="733" height="489" viewBox="0 0 733 489" fill="none" xmlns="http://www.w3.org/2000/svg">
<path d="M27.9518 30.2787C46.359 22.9117 69.1838 24.1689 88.6329 22.3726C105.34 20.8296 121.648 18.6261 138.439 18.0831C169.619 17.0747 201.616 18.6758 232.534 13.9619C263.426 9.25191 294.726 10.5976 325.841 10.5976C371.759 10.5976 417.677 10.5976 463.595 10.5976C525.694 10.5976 587.794 10.5976 649.893 10.5976C678.371 10.5976 704.42 4.54184 732.956 4.54184" stroke="white" stroke-width="5"/>
<path d="M32.2074 16.6532C24.8734 21.718 26.4146 35.2056 25.8241 43.1471C24.8149 56.7175 25.1148 70.3356 25.1148 83.9391C25.1148 112.003 25.1148 140.067 25.1148 168.131C25.1148 216.709 27.9519 264.755 27.9519 313.384C27.9519 349.101 27.9519 384.819 27.9519 420.537C27.9519 443.615 32.2074 465.984 32.2074 489" stroke="white" stroke-width="5"/>
<path d="M1 484C38.5307 471.314 80.3996 470.504 119.385 470.504C152.855 470.504 186.174 472.003 219.621 472.003C245.53 472.003 271.184 474.374 297.038 474.919C317.114 475.342 337.214 474.486 357.285 475.086C397.648 476.293 437.967 476.502 478.382 476.502C509.22 476.502 539.857 478.062 570.333 472.337C589.461 468.743 608.627 469.004 628.02 469.004C663.038 469.004 698.018 470.504 733 470.504" stroke="white" stroke-width="5"/>
<path d="M708.841 0C708.841 26.0092 710.965 51.0288 712.781 76.8741C715.074 109.507 714.515 142.876 714.515 175.616C714.515 225.52 714.515 275.423 714.515 325.327C714.515 365.362 714.515 405.397 714.515 445.432C714.515 459.959 712.822 473.276 718.77 485.972" stroke="white" stroke-width="5"/>
<path d="M23.6963 101.433C57.2814 101.433 90.5878 101.447 124.096 98.742C150.487 96.6117 176.732 92.6633 203.139 90.92C235.502 88.7835 268.048 88.9499 300.465 89.3219C353.125 89.9263 405.57 96.8916 458.315 96.8916C520.518 96.8916 583.567 93.5344 645.086 84.7802C659.437 82.738 673.773 83.2662 688.272 83.2662C695.268 83.2662 704.213 84.9788 710.259 81.7523" stroke="white" stroke-width="3"/>
<path d="M103.133 155.935C155.767 155.935 208.362 154.421 260.983 154.421C269.842 154.421 279.56 155.497 288.329 154.085C294.804 153.041 300.831 151.393 307.4 151.393" stroke="white" stroke-width="3"/>
<path d="M101.715 157.449C101.715 173.691 104.552 188.037 104.552 204.381" stroke="white" stroke-width="3"/>
<path d="M104.552 205.895C175.112 205.895 245.335 204.381 315.911 204.381" stroke="white" stroke-width="3"/>
<path d="M310.237 155.935C310.237 164.465 309.794 173.152 310.237 181.672C310.597 188.588 313.074 196.16 313.074 202.867" stroke="white" stroke-width="3"/>
<path d="M107.389 224.062C107.389 234.277 111.791 242.511 113.772 252.238C117.461 270.346 118.737 290.207 118.737 308.758C118.737 318.262 118.737 327.766 118.737 337.27C118.737 340.9 117.901 354.338 115.9 343.663" stroke="white" stroke-width="3"/>
<path d="M117.319 222.548C124.405 222.548 130.728 225.469 137.808 225.576C151.094 225.776 164.397 225.576 177.684 225.576C211.834 225.576 245.983 225.576 280.133 225.576C312.864 225.576 345.595 225.576 378.326 225.576" stroke="white" stroke-width="3"/>
<path d="M378.326 225.576C381.432 232.619 381.237 242.782 382.266 250.472C383.652 260.825 384 272.961 384 283.442C384 300.487 384 317.533 384 334.579" stroke="white" stroke-width="3"/>
<path d="M117.319 342.149C176.534 337.935 235.579 328.523 294.949 328.523C330.18 328.523 364.393 334.579 399.604 334.579" stroke="white" stroke-width="3"/>
<path d="M132.922 370.913C162.275 370.913 192.373 370.124 221.501 366.708C234.053 365.236 247.332 365.294 259.722 363.26C264.019 362.554 267.9 357.522 271.937 361.83" stroke="white" stroke-width="3"/>
<path d="M131.504 372.427C127.818 374.64 127.248 380.208 127.248 384.539C127.248 389.937 127.04 390.594 132.449 390.594C162.992 390.594 193.55 392.108 224.023 392.108C240.473 392.108 256.661 392.114 272.725 388.996C277.747 388.022 274.295 366.873 270.519 364.858" stroke="white" stroke-width="3"/>
<path d="M57.7407 181.672C57.7407 181.473 52.4924 196.374 55.6918 198.325C59.5351 200.669 67.1718 201.28 69.877 197.568C72.0888 194.533 73.8753 184.268 70.8226 181.335C67.824 178.455 59.4509 180.158 55.6918 180.158C49.8876 180.158 46.7657 178.803 53.4852 181.672" stroke="white" stroke-width="3"/>
<path d="M70.5074 199.839C62.8381 200.862 68.9648 262.2 69.0101 264.181C69.2406 274.267 69.0889 284.371 69.0889 294.46C69.0889 298.366 65.6836 295.518 64.8333 293.703" stroke="white" stroke-width="3"/>
<path d="M64.8333 293.703C62.0042 303.139 62.7357 311.716 71.9259 316.075C83.1063 321.379 83.2741 303.626 83.2741 296.815C83.2741 292.43 84.5061 289.161 79.7278 289.161C77.1896 289.161 73.7352 288.501 71.2955 289.245C66.7153 290.642 71.8801 295.168 73.3445 296.731C77.7378 301.419 76.1815 308.698 76.1815 314.898" stroke="white" stroke-width="3"/>
<path d="M73.3444 322.467V381.511" stroke="white" stroke-width="3"/>
<path d="M71.9259 381.511C71.3125 388.058 69.0889 393.507 69.0889 400.351C69.0889 410.911 68.1252 411.789 78.2305 411.789C87.1782 411.789 89.9452 398.632 88.8693 390.594C88.4147 387.198 82.6765 384.703 80.437 382.688C76.4262 379.079 73.3244 373.941 67.6704 373.941" stroke="white" stroke-width="3"/>
<path d="M71.9259 51.4737H205.267" stroke="white" stroke-width="3"/>
<path d="M74.763 52.9876C74.763 60.2497 76.1815 67.1898 76.1815 74.1827" stroke="white" stroke-width="3"/>
<path d="M76.1815 74.1826C111.306 74.1826 146.418 72.6686 181.467 72.6686C186.22 72.6686 201.378 74.6322 204.951 70.8183C205.45 70.2861 203.516 60.3313 205.267 57.5293" stroke="white" stroke-width="3"/>
<path d="M208.104 56.0154C195.475 56.0154 183.848 63.5235 171.301 65.0989C159.587 66.5697 148.336 72.0281 136.705 74.0143C123.39 76.288 109.573 75.6965 96.0407 75.6965" stroke="white" stroke-width="3"/>
<path d="M71.9259 54.5016C79.3441 54.5016 97.9063 53.9749 103.843 59.0434C110.675 64.8771 128.552 62.0712 136.469 62.0712C148.94 62.0712 161.433 61.8418 173.902 62.0712C182.567 62.2307 190.34 72.6688 198.174 72.6688" stroke="white" stroke-width="3"/>
<path d="M364.141 222.548C369.512 208.217 365.559 185.261 365.559 169.56" stroke="white" stroke-width="3"/>
<path d="M365.559 174.102C366.183 168.778 396.648 171.074 398.973 171.074C416.678 171.074 434.384 171.074 452.089 171.074C467.798 171.074 483.506 171.074 499.215 171.074C510.657 171.074 523.451 169.329 534.363 173.766C540.372 176.209 550.276 174.102 556.744 174.102C563.942 174.102 571.139 174.102 578.337 174.102C590.368 174.102 601.811 175.616 613.8 175.616" stroke="white" stroke-width="3"/>
<path d="M616.637 177.13C616.637 192.067 624.493 207.532 626.251 222.548C628.365 240.592 627.985 259.189 627.985 277.386C627.985 298.158 626.567 318.666 626.567 339.457C626.567 346.748 626.592 354.003 628.064 361.073C628.71 364.173 630.822 363.879 630.822 367.885" stroke="white" stroke-width="3"/>
<path d="M366.978 333.065C371.105 338.571 368.396 353.285 368.396 360.316C368.396 365.867 368.396 371.418 368.396 376.969" stroke="white" stroke-width="3"/>
<path d="M368.396 376.969C377.021 376.969 384.894 373.545 393.457 372.764C412.878 370.992 432.07 370.02 451.301 366.371C477.731 361.357 505.527 361.83 532.314 361.83C565.164 361.83 663.672 364.858 630.822 364.858" stroke="white" stroke-width="3"/>
<path d="M388.256 266.452C389.681 252.003 413.8 239.572 423.718 232.809C433.11 226.405 442.854 217.254 453.507 213.464" stroke="white" stroke-width="3"/>
<path d="M452.089 213.464C466.352 231.141 490.071 238.915 505.993 255.013C509.856 258.919 524.433 269.418 524.433 275.536" stroke="white" stroke-width="3"/>
<path d="M524.433 275.536C529.978 270.836 534.74 259.758 541.456 257.368" stroke="white" stroke-width="3"/>
<path d="M541.456 261.854C545.802 264.583 547.88 269.349 552.725 271.611C558.808 274.451 564.472 278.099 570.378 281.367C577.834 285.494 585.433 288.026 592.522 292.89C601.486 299.04 613.058 304.966 620.893 313.328" stroke="white" stroke-width="3"/>
</svg>
